<svg version="1.1" xmlns="http://www.w3.org/2000/svg" viewBox="0 0 406.14822307424606 377.0275449279913" width="406.14822307424606" height="377.0275449279913"><!-- svg-source:excalidraw --><metadata></metadata><defs><style class="style-fonts">
      </style></defs><g stroke-linecap="round" transform="translate(77.86878500445232 105.96430072895964) rotate(0 24.470690348194694 82.29226940491927)"><path d="M0 0 L48.94 0 L48.94 164.58 L0 164.58" stroke="none" stroke-width="0" fill="#6741d9"></path><path d="M0 0 C17.59 0, 35.18 0, 48.94 0 M0 0 C17.36 0, 34.73 0, 48.94 0 M48.94 0 C48.94 56.65, 48.94 113.3, 48.94 164.58 M48.94 0 C48.94 54.18, 48.94 108.37, 48.94 164.58 M48.94 164.58 C32.16 164.58, 15.37 164.58, 0 164.58 M48.94 164.58 C30.76 164.58, 12.58 164.58, 0 164.58 M0 164.58 C0 110.52, 0 56.46, 0 0 M0 164.58 C0 114.96, 0 65.34, 0 0" stroke="#6741d9" stroke-width="1" fill="none"></path></g><g stroke-linecap="round" transform="translate(144.75290735704402 10) rotate(0 24.470690348194694 161.61039694031717)"><path d="M0 0 L48.94 0 L48.94 323.22 L0 323.22" stroke="none" stroke-width="0" fill="#6741d9"></path><path d="M0 0 C14.14 0, 28.28 0, 48.94 0 M0 0 C14.51 0, 29.01 0, 48.94 0 M48.94 0 C48.94 107.33, 48.94 214.65, 48.94 323.22 M48.94 0 C48.94 82.77, 48.94 165.54, 48.94 323.22 M48.94 323.22 C36.86 323.22, 24.78 323.22, 0 323.22 M48.94 323.22 C33.4 323.22, 17.87 323.22, 0 323.22 M0 323.22 C0 206.67, 0 90.11, 0 0 M0 323.22 C0 235.73, 0 148.24, 0 0" stroke="#6741d9" stroke-width="1" fill="none"></path></g><g stroke-linecap="round" transform="translate(212.71651172797715 40.20591842572264) rotate(0 24.470690348194694 163.41081325113433)"><path d="M0 0 L48.94 0 L48.94 326.82 L0 326.82" stroke="none" stroke-width="0" fill="#6741d9"></path><path d="M0 0 C18.29 0, 36.58 0, 48.94 0 M0 0 C16.75 0, 33.5 0, 48.94 0 M48.94 0 C48.94 128.66, 48.94 257.32, 48.94 326.82 M48.94 0 C48.94 68.63, 48.94 137.26, 48.94 326.82 M48.94 326.82 C34.66 326.82, 20.38 326.82, 0 326.82 M48.94 326.82 C36.79 326.82, 24.65 326.82, 0 326.82 M0 326.82 C0 216.16, 0 105.49, 0 0 M0 326.82 C0 256.03, 0 185.23, 0 0" stroke="#6741d9" stroke-width="1" fill="none"></path></g><g stroke-linecap="round" transform="translate(279.74651002899054 107.13143842193057) rotate(0 24.470690348194694 82.15544565048354)"><path d="M0 0 L48.94 0 L48.94 164.31 L0 164.31" stroke="none" stroke-width="0" fill="#6741d9"></path><path d="M0 0 C17.19 0, 34.38 0, 48.94 0 M0 0 C18.31 0, 36.61 0, 48.94 0 M48.94 0 C48.94 49.9, 48.94 99.8, 48.94 164.31 M48.94 0 C48.94 34.28, 48.94 68.56, 48.94 164.31 M48.94 164.31 C30.3 164.31, 11.66 164.31, 0 164.31 M48.94 164.31 C38.9 164.31, 28.87 164.31, 0 164.31 M0 164.31 C0 119.78, 0 75.25, 0 0 M0 164.31 C0 128.54, 0 92.77, 0 0" stroke="#6741d9" stroke-width="1" fill="none"></path></g><g stroke-linecap="round" transform="translate(347.2068423778567 148.83241229422245) rotate(0 24.470690348194694 38.88550104361637)"><path d="M0 0 L48.94 0 L48.94 77.77 L0 77.77" stroke="none" stroke-width="0" fill="#6741d9"></path><path d="M0 0 C10.24 0, 20.49 0, 48.94 0 M0 0 C14.59 0, 29.18 0, 48.94 0 M48.94 0 C48.94 29.82, 48.94 59.63, 48.94 77.77 M48.94 0 C48.94 27.59, 48.94 55.17, 48.94 77.77 M48.94 77.77 C38.87 77.77, 28.79 77.77, 0 77.77 M48.94 77.77 C36.78 77.77, 24.62 77.77, 0 77.77 M0 77.77 C0 59.03, 0 40.28, 0 0 M0 77.77 C0 52.21, 0 26.66, 0 0" stroke="#6741d9" stroke-width="1" fill="none"></path></g><g stroke-linecap="round" transform="translate(10 147.02838021043036) rotate(0 24.470690348194694 39.40474056814317)"><path d="M0 0 L48.94 0 L48.94 78.81 L0 78.81" stroke="none" stroke-width="0" fill="#6741d9"></path><path d="M0 0 C18.43 0, 36.86 0, 48.94 0 M0 0 C10.98 0, 21.96 0, 48.94 0 M48.94 0 C48.94 24.42, 48.94 48.83, 48.94 78.81 M48.94 0 C48.94 27.31, 48.94 54.62, 48.94 78.81 M48.94 78.81 C31.95 78.81, 14.96 78.81, 0 78.81 M48.94 78.81 C31.52 78.81, 14.1 78.81, 0 78.81 M0 78.81 C0 55.75, 0 32.69, 0 0 M0 78.81 C0 51.92, 0 25.03, 0 0" stroke="#6741d9" stroke-width="1" fill="none"></path></g></svg>